<?xml version="1.0" encoding="utf-8"?>
<!-- Generator: Adobe Illustrator 16.0.0, SVG Export Plug-In . SVG Version: 6.00 Build 0)  -->
<!DOCTYPE svg PUBLIC "-//W3C//DTD SVG 1.1//EN" "http://www.w3.org/Graphics/SVG/1.1/DTD/svg11.dtd">
<svg version="1.1"
	 id="svg4423" xmlns:dc="http://purl.org/dc/elements/1.1/" xmlns:cc="http://creativecommons.org/ns#" xmlns:rdf="http://www.w3.org/1999/02/22-rdf-syntax-ns#" xmlns:svg="http://www.w3.org/2000/svg" xmlns:sodipodi="http://sodipodi.sourceforge.net/DTD/sodipodi-0.dtd" xmlns:inkscape="http://www.inkscape.org/namespaces/inkscape" inkscape:version="0.48.1 r9760" sodipodi:docname="10H.svg"
	 xmlns="http://www.w3.org/2000/svg" xmlns:xlink="http://www.w3.org/1999/xlink" x="0px" y="0px" width="224.224px"
	 height="312.809px" viewBox="259.935 369.778 224.224 312.809" enable-background="new 259.935 369.778 224.224 312.809"
	 xml:space="preserve">
<sodipodi:namedview  id="base" pagecolor="#ffffff" bordercolor="#666666" borderopacity="1.0" inkscape:zoom="0.69999999" inkscape:cx="126.73995" inkscape:cy="451.52252" showgrid="false" inkscape:pageshadow="2" inkscape:snap-global="true" inkscape:snap-bbox="true" inkscape:window-width="735" inkscape:window-height="925" inkscape:document-units="px" inkscape:window-x="705" inkscape:snap-page="true" inkscape:pageopacity="0.0" inkscape:window-y="60" inkscape:window-maximized="0" inkscape:current-layer="layer1">
	</sodipodi:namedview>
<g id="layer1" inkscape:label="10H" inkscape:groupmode="layer">
	<g id="g8970" transform="translate(-1760.0774,-113.66123)">
		<g id="g8891">
			<g id="g8795" transform="translate(-4683.8753,2918.9368)">
				<path id="rect6365" fill="#FFFFFF" d="M6715.015-2435h201.97c5.871,0,10.629,4.759,10.629,10.63v290.551
					c0,5.871-4.758,10.632-10.629,10.632h-201.969c-5.871,0-10.63-4.761-10.63-10.632v-290.551
					C6704.385-2430.241,6709.145-2435,6715.015-2435z"/>
				<g id="g8612" transform="matrix(0.30106207,0,0,0.30106207,5267.5599,-1982.7028)">
					<path id="path7216" sodipodi:nodetypes="ccccc" inkscape:connector-curvature="0" fill="#D40000" d="M4797.862-1351.723
						v-104.652h10.334v104.652H4797.862z"/>
					<path id="rect7235" inkscape:connector-curvature="0" fill="#D40000" d="M4838.817-1456.376
						c-9.945,0-17.941,8.924-17.941,20.004v64.644c0,11.077,7.996,20.004,17.941,20.004h5.796c9.945,0,17.958-8.927,17.958-20.004
						v-64.644c0-11.081-8.012-20.004-17.958-20.004H4838.817z M4841.811-1446.486c5.875,0,10.601,4.441,10.601,9.971v65.51
						c0,5.531-4.726,9.987-10.601,9.987s-10.6-4.457-10.6-9.987v-65.51C4831.211-1442.045,4835.937-1446.486,4841.811-1446.486z"/>
					<g id="g7984" transform="matrix(-0.50404239,0,0,-0.50404239,7403.6384,312.07817)">
						<path id="path7986" sodipodi:nodetypes="ccccc" inkscape:connector-curvature="0" fill="#D40000" d="M3799.247,1843.757
							v-207.633h20.503v207.633H3799.247z"/>
						<path id="path7988" inkscape:connector-curvature="0" fill="#D40000" d="M3880.5,1636.125
							c-19.731,0-35.588,17.71-35.588,39.694v128.245c0,21.983,15.857,39.694,35.588,39.694h11.506
							c19.731,0,35.626-17.71,35.626-39.694v-128.245c0-21.983-15.896-39.694-35.626-39.694H3880.5z M3886.434,1655.753
							c11.661,0,21.044,8.816,21.044,19.782v129.97c0,10.966-9.383,19.808-21.044,19.808c-11.648,0-21.031-8.842-21.031-19.808
							v-129.97C3865.403,1664.569,3874.786,1655.753,3886.434,1655.753z"/>
					</g>
				</g>
			</g>
		</g>
		<path id="path8644" sodipodi:nodetypes="cccccccc" inkscape:connector-curvature="0" fill="#D40000" d="M2029.035,544.076
			c-1.583-3.474-1.757-9.405,2.972-10.209c3.562-0.458,5.012,1.198,5.3,3.742c0.142,0.743,0.562,0.788,0.695-0.059
			c0.204-2.609,2.786-4.133,4.807-3.75c5.526,0.945,5.204,7.028,3.397,11.155c-2.73,5.479-5.601,8.938-8.244,14.452
			C2034.922,553.668,2031.453,549.004,2029.035,544.076L2029.035,544.076z"/>
		<path id="path8568" sodipodi:nodetypes="ccccsccssc" inkscape:connector-curvature="0" fill="#D40000" d="M2063.539,512.26
			c7.144-0.474,10.867,5.627,11.595,10.437c0.435,0.765,0.671,0.55,0.837-0.042c0.35-6.174,5.875-11.22,10.993-10.529
			c8.327,0.107,13.389,9.375,11.966,17.219c-1.738,9.581-6.898,15.352-10.809,21.293c-4.422,6.152-10.373,15.039-12.289,19.316
			c0,0-6.049-9.204-13.918-20.029c-5.262-7.238-9.474-15.082-9.864-21.835C2051.6,520.372,2054.768,513.456,2063.539,512.26
			L2063.539,512.26z"/>
		<path id="path8570" sodipodi:nodetypes="ccccsccssc" inkscape:connector-curvature="0" fill="#D40000" d="M2119.72,544.925
			c7.145-0.474,10.869,5.628,11.596,10.438c0.435,0.765,0.67,0.549,0.837-0.042c0.35-6.175,5.875-11.221,10.992-10.53
			c8.328,0.107,13.392,9.376,11.967,17.219c-1.737,9.582-6.897,15.353-10.807,21.293c-4.422,6.152-10.373,15.04-12.292,19.317
			c0,0-6.048-9.205-13.917-20.03c-5.262-7.238-9.473-15.082-9.864-21.835C2107.785,553.037,2110.951,546.121,2119.72,544.925
			L2119.72,544.925z"/>
		<path id="path8572" sodipodi:nodetypes="ccccsccssc" inkscape:connector-curvature="0" fill="#D40000" d="M2175.07,512.26
			c7.146-0.474,10.869,5.627,11.597,10.437c0.434,0.765,0.67,0.55,0.836-0.042c0.35-6.174,5.875-11.22,10.991-10.529
			c8.328,0.107,13.392,9.375,11.968,17.219c-1.738,9.581-6.898,15.352-10.808,21.293c-4.422,6.152-10.373,15.039-12.291,19.316
			c0,0-6.049-9.204-13.918-20.029c-5.262-7.238-9.473-15.082-9.862-21.835C2163.133,520.372,2166.301,513.456,2175.07,512.26
			L2175.07,512.26z"/>
		<path id="path8574" sodipodi:nodetypes="ccccsccssc" inkscape:connector-curvature="0" fill="#D40000" d="M2175.07,577.591
			c7.146-0.475,10.869,5.627,11.597,10.438c0.434,0.764,0.67,0.548,0.836-0.044c0.35-6.174,5.875-11.22,10.991-10.529
			c8.328,0.107,13.392,9.376,11.968,17.219c-1.738,9.582-6.898,15.352-10.808,21.294c-4.422,6.152-10.373,15.039-12.291,19.316
			c0,0-6.049-9.205-13.918-20.029c-5.262-7.239-9.473-15.083-9.862-21.836C2163.133,585.703,2166.301,578.786,2175.07,577.591
			L2175.07,577.591z"/>
		<path id="path8576" sodipodi:nodetypes="ccccsccssc" inkscape:connector-curvature="0" fill="#D40000" d="M2063.539,577.591
			c7.144-0.475,10.867,5.627,11.595,10.438c0.435,0.764,0.671,0.548,0.837-0.044c0.35-6.174,5.875-11.22,10.993-10.529
			c8.327,0.107,13.389,9.376,11.966,17.219c-1.738,9.582-6.898,15.352-10.809,21.294c-4.422,6.152-10.373,15.039-12.289,19.316
			c0,0-6.049-9.205-13.918-20.029c-5.262-7.239-9.474-15.083-9.864-21.836C2051.6,585.703,2054.768,578.786,2063.539,577.591
			L2063.539,577.591z"/>
		<path id="path8596" sodipodi:nodetypes="ccccsccssc" inkscape:connector-curvature="0" fill="#D40000" d="M2175.07,701.981
			c7.146,0.476,10.869-5.627,11.597-10.438c0.434-0.764,0.67-0.547,0.836,0.043c0.35,6.174,5.875,11.221,10.991,10.531
			c8.328-0.109,13.392-9.377,11.968-17.219c-1.738-9.582-6.898-15.353-10.808-21.296c-4.422-6.151-10.373-15.038-12.291-19.315
			c0,0-6.049,9.205-13.918,20.029c-5.262,7.239-9.473,15.084-9.862,21.836C2163.133,693.868,2166.301,700.786,2175.07,701.981
			L2175.07,701.981z"/>
		<path id="path8598" sodipodi:nodetypes="ccccsccssc" inkscape:connector-curvature="0" fill="#D40000" d="M2175.07,767.087
			c7.146,0.475,10.869-5.627,11.597-10.438c0.434-0.764,0.67-0.549,0.836,0.043c0.35,6.175,5.875,11.222,10.991,10.529
			c8.328-0.106,13.392-9.375,11.968-17.219c-1.738-9.58-6.898-15.35-10.808-21.293c-4.422-6.152-10.373-15.039-12.291-19.316
			c0,0-6.049,9.205-13.918,20.029c-5.262,7.238-9.473,15.084-9.862,21.836C2163.133,758.973,2166.301,765.891,2175.07,767.087
			L2175.07,767.087z"/>
		<path id="path8600" sodipodi:nodetypes="ccccsccssc" inkscape:connector-curvature="0" fill="#D40000" d="M2119.253,734.534
			c7.144,0.475,10.867-5.627,11.595-10.438c0.435-0.764,0.671-0.547,0.837,0.043c0.35,6.174,5.875,11.222,10.993,10.531
			c8.327-0.109,13.389-9.377,11.967-17.219c-1.738-9.582-6.899-15.353-10.81-21.295c-4.422-6.152-10.373-15.039-12.289-19.316
			c0,0-6.05,9.205-13.918,20.029c-5.263,7.24-9.474,15.084-9.864,21.836C2107.316,726.421,2110.483,733.339,2119.253,734.534
			L2119.253,734.534z"/>
		<path id="path8602" sodipodi:nodetypes="ccccsccssc" inkscape:connector-curvature="0" fill="#D40000" d="M2063.539,701.981
			c7.144,0.476,10.867-5.627,11.595-10.438c0.435-0.764,0.671-0.547,0.837,0.043c0.35,6.174,5.875,11.221,10.993,10.531
			c8.327-0.109,13.389-9.377,11.966-17.219c-1.738-9.582-6.898-15.353-10.809-21.296c-4.422-6.151-10.373-15.038-12.289-19.315
			c0,0-6.049,9.205-13.918,20.029c-5.262,7.239-9.474,15.084-9.864,21.836C2051.6,693.868,2054.768,700.786,2063.539,701.981
			L2063.539,701.981z"/>
		<path id="path8604" sodipodi:nodetypes="ccccsccssc" inkscape:connector-curvature="0" fill="#D40000" d="M2063.539,767.087
			c7.144,0.475,10.867-5.627,11.595-10.438c0.435-0.764,0.671-0.549,0.837,0.043c0.35,6.175,5.875,11.222,10.993,10.529
			c8.327-0.106,13.389-9.375,11.966-17.219c-1.738-9.58-6.898-15.35-10.809-21.293c-4.422-6.152-10.373-15.039-12.289-19.316
			c0,0-6.049,9.205-13.918,20.029c-5.262,7.238-9.474,15.084-9.864,21.836C2051.6,758.973,2054.768,765.891,2063.539,767.087
			L2063.539,767.087z"/>
		<path id="path8660" sodipodi:nodetypes="cccccccc" inkscape:connector-curvature="0" fill="#D40000" d="M2217.85,734.934
			c-1.582,3.474-1.756,9.404,2.974,10.207c3.561,0.459,5.012-1.197,5.299-3.74c0.143-0.743,0.563-0.788,0.695,0.058
			c0.202,2.608,2.787,4.133,4.807,3.75c5.524-0.945,5.203-7.027,3.397-11.154c-2.731-5.479-5.602-8.938-8.246-14.453
			C2223.738,725.342,2220.268,730.006,2217.85,734.934L2217.85,734.934z"/>
	</g>
</g>
</svg>
