<?xml version="1.0" encoding="utf-8"?>
<!-- Generator: Adobe Illustrator 16.0.0, SVG Export Plug-In . SVG Version: 6.00 Build 0)  -->
<!DOCTYPE svg PUBLIC "-//W3C//DTD SVG 1.1//EN" "http://www.w3.org/Graphics/SVG/1.1/DTD/svg11.dtd">
<svg version="1.1"
	 id="svg4423" xmlns:dc="http://purl.org/dc/elements/1.1/" xmlns:cc="http://creativecommons.org/ns#" xmlns:rdf="http://www.w3.org/1999/02/22-rdf-syntax-ns#" xmlns:svg="http://www.w3.org/2000/svg" xmlns:sodipodi="http://sodipodi.sourceforge.net/DTD/sodipodi-0.dtd" xmlns:inkscape="http://www.inkscape.org/namespaces/inkscape" sodipodi:docname="2H.svg" inkscape:version="0.48.1 r9760"
	 xmlns="http://www.w3.org/2000/svg" xmlns:xlink="http://www.w3.org/1999/xlink" x="0px" y="0px" width="224.226px"
	 height="312.808px" viewBox="259.936 369.778 224.226 312.808" enable-background="new 259.936 369.778 224.226 312.808"
	 xml:space="preserve">
<sodipodi:namedview  showgrid="false" inkscape:cy="492.08587" inkscape:cx="248.48484" inkscape:zoom="0.98994948" borderopacity="1.0" bordercolor="#666666" pagecolor="#ffffff" id="base" inkscape:current-layer="layer1" inkscape:window-maximized="0" inkscape:window-y="42" inkscape:pageopacity="0.0" inkscape:window-width="690" inkscape:snap-page="true" inkscape:snap-bbox="true" inkscape:window-x="935" inkscape:document-units="px" inkscape:snap-global="true" inkscape:pageshadow="2" inkscape:window-height="925">
	</sodipodi:namedview>
<g id="layer1" inkscape:label="2H" inkscape:groupmode="layer">
	<g id="g8900" transform="translate(-1313.6208,198.14981)">
		<g id="g8879" transform="translate(-4683.8753,2918.9368)">
			<path id="rect6347" fill="#FFFFFF" d="M6268.561-2746.811h201.969c5.871,0,10.631,4.759,10.631,10.63v290.551
				c0,5.871-4.76,10.631-10.631,10.631h-201.969c-5.871,0-10.63-4.76-10.63-10.631v-290.551
				C6257.931-2742.052,6262.689-2746.811,6268.561-2746.811z"/>
		</g>
		<g id="g6564" transform="translate(-0.13622252,4.5315816e-5)">
			<path id="path8628" inkscape:connector-curvature="0" sodipodi:nodetypes="cccccccc" fill="#D40000" d="M1583.27,232.357
				c-1.583-3.472-1.757-9.405,2.972-10.208c3.562-0.458,5.012,1.198,5.3,3.742c0.142,0.743,0.562,0.788,0.695-0.06
				c0.204-2.608,2.786-4.132,4.807-3.75c5.526,0.945,5.204,7.028,3.397,11.156c-2.73,5.479-5.601,8.938-8.244,14.451
				C1589.158,241.949,1585.688,237.285,1583.27,232.357L1583.27,232.357z"/>
			<g id="g6555">
				<path id="path8650" inkscape:connector-curvature="0" sodipodi:nodetypes="cccccccc" fill="#D40000" d="M1770.994,423.63
					c-1.584,3.473-1.759,9.405,2.971,10.206c3.563,0.46,5.012-1.196,5.301-3.739c0.142-0.744,0.562-0.789,0.693,0.057
					c0.205,2.609,2.787,4.133,4.807,3.75c5.527-0.945,5.205-7.027,3.398-11.154c-2.73-5.479-5.601-8.938-8.244-14.452
					C1776.881,414.037,1773.412,418.701,1770.994,423.63L1770.994,423.63z"/>
				<g id="g6548">
					<g id="g8574" transform="matrix(0.30106207,0,0,0.30106207,995.9849,969.13578)">
						<path id="path7100" inkscape:connector-curvature="0" sodipodi:nodetypes="csscscccsccccccc" fill="#D40000" d="
							M1947.703-2492.422l0.548-6.705c1.693-20.724,6.225-27.724,31.96-49.344c12.488-10.493,16.588-15.67,17.166-21.678
							c1.628-14.149-11.132-18.57-19.449-18.648c-10.769-0.097-22.949,6.351-17.143,21.305l-12.08,3.549
							c-2.439-13.951,0.058-27.043,11.376-32.859c15.103-7.574,34.481-4.603,44.257,7.327c6.569,8.022,8.064,19.089,4.544,27.757
							c-10.299,22.158-45.247,31.909-48.134,57.528h38.633v-14.266h11.379v26.264L1947.703-2492.422z"/>
						<path id="path7116" inkscape:connector-curvature="0" sodipodi:nodetypes="csscscccsccccccc" fill="#D40000" d="
							M2633.968-1766.528l-0.545,6.702c-1.693,20.721-6.228,27.721-31.964,49.344c-12.488,10.49-16.588,15.667-17.166,21.675
							c-1.628,14.149,11.133,18.574,19.449,18.651c10.769,0.097,22.953-6.351,17.14-21.305l12.08-3.549
							c2.439,13.948-0.052,27.046-11.373,32.859c-15.103,7.571-34.481,4.6-44.257-7.331c-6.572-8.022-8.064-19.086-4.541-27.753
							c10.296-22.161,45.243-31.912,48.13-57.531h-38.636v14.269h-11.379v-26.268L2633.968-1766.528z"/>
					</g>
					<path id="path8514" inkscape:connector-curvature="0" sodipodi:nodetypes="ccccsccssc" fill="#D40000" d="M1673.719,200.092
						c7.146-0.475,10.869,5.627,11.596,10.438c0.435,0.764,0.671,0.549,0.837-0.042c0.351-6.174,5.875-11.22,10.993-10.53
						c8.328,0.108,13.39,9.375,11.968,17.219c-1.738,9.582-6.9,15.352-10.81,21.294c-4.422,6.151-10.373,15.039-12.29,19.315
						c0,0-6.049-9.204-13.918-20.028c-5.262-7.238-9.473-15.084-9.864-21.836C1661.782,208.204,1664.95,201.287,1673.719,200.092
						L1673.719,200.092z"/>
					<path id="path8580" inkscape:connector-curvature="0" sodipodi:nodetypes="ccccsccssc" fill="#D40000" d="M1673.719,456.393
						c7.146,0.475,10.869-5.627,11.596-10.437c0.435-0.766,0.671-0.549,0.837,0.041c0.351,6.175,5.875,11.222,10.993,10.531
						c8.328-0.109,13.39-9.375,11.968-17.219c-1.738-9.582-6.9-15.353-10.81-21.293c-4.422-6.152-10.373-15.041-12.29-19.318
						c0,0-6.049,9.205-13.918,20.031c-5.262,7.238-9.473,15.082-9.864,21.834C1661.782,448.281,1664.95,455.198,1673.719,456.393
						L1673.719,456.393z"/>
				</g>
			</g>
		</g>
	</g>
</g>
</svg>
