<?xml version="1.0" encoding="utf-8"?>
<!-- Generator: Adobe Illustrator 16.0.0, SVG Export Plug-In . SVG Version: 6.00 Build 0)  -->
<!DOCTYPE svg PUBLIC "-//W3C//DTD SVG 1.1//EN" "http://www.w3.org/Graphics/SVG/1.1/DTD/svg11.dtd">
<svg version="1.1"
	 id="svg4423" xmlns:dc="http://purl.org/dc/elements/1.1/" xmlns:cc="http://creativecommons.org/ns#" xmlns:rdf="http://www.w3.org/1999/02/22-rdf-syntax-ns#" xmlns:svg="http://www.w3.org/2000/svg" xmlns:sodipodi="http://sodipodi.sourceforge.net/DTD/sodipodi-0.dtd" xmlns:inkscape="http://www.inkscape.org/namespaces/inkscape" sodipodi:docname="4H.svg" inkscape:version="0.48.1 r9760"
	 xmlns="http://www.w3.org/2000/svg" xmlns:xlink="http://www.w3.org/1999/xlink" x="0px" y="0px" width="224.224px"
	 height="312.808px" viewBox="259.935 369.777 224.224 312.808" enable-background="new 259.935 369.777 224.224 312.808"
	 xml:space="preserve">
<sodipodi:namedview  showgrid="false" inkscape:cy="483.12663" inkscape:cx="249.10806" inkscape:zoom="0.98994948" borderopacity="1.0" bordercolor="#666666" pagecolor="#ffffff" id="base" inkscape:current-layer="layer1" inkscape:window-maximized="0" inkscape:window-y="44" inkscape:pageopacity="0.0" inkscape:window-width="735" inkscape:snap-page="true" inkscape:snap-bbox="true" inkscape:window-x="577" inkscape:document-units="px" inkscape:snap-global="true" inkscape:pageshadow="2" inkscape:window-height="925">
	</sodipodi:namedview>
<g id="layer1" inkscape:label="4H" inkscape:groupmode="layer">
	<g id="g8925" transform="translate(-1760.0774,198.14981)">
		<g id="g8796">
			<g id="g8902" transform="translate(-4683.8753,2918.9368)">
				<path id="rect6353" fill="#FFFFFF" d="M6715.015-2746.812h201.97c5.871,0,10.629,4.759,10.629,10.63v290.551
					c0,5.871-4.758,10.631-10.629,10.631h-201.969c-5.871,0-10.63-4.76-10.63-10.631v-290.551
					C6704.384-2742.053,6709.145-2746.812,6715.015-2746.812z"/>
				<g id="g8591" transform="matrix(0.30106207,0,0,0.30106207,5623.2929,-1949.6699)">
					<path id="path7104" inkscape:connector-curvature="0" sodipodi:nodetypes="cccccccccccccccccccc" fill="#D40000" d="
						M3650.176-2493.734v-9.342h8.586v-15.398h-42.931v-10.866l46.45-70.081l7.594,0.026v70.052h13.13v10.866h-13.13l-0.253,15.401
						h7.198v9.342H3650.176L3650.176-2493.734z M3658.762-2573.773l-29.495,44.429h29.495V-2573.773z"/>
					<path id="path7159" inkscape:connector-curvature="0" sodipodi:nodetypes="cccccccccccccccccccc" fill="#D40000" d="
						M4273.153-1766.098v9.342h-8.583v15.401h42.934v10.866l-46.453,70.074l-7.594-0.026v-70.052h-13.124v-10.866h13.124
						l0.253-15.398h-7.191v-9.345h26.634V-1766.098z M4264.577-1686.056l29.492-44.432h-29.492V-1686.056z"/>
				</g>
			</g>
		</g>
		<path id="path8638" inkscape:connector-curvature="0" sodipodi:nodetypes="cccccccc" fill="#D40000" d="M2029.267,233.12
			c-1.583-3.473-1.756-9.403,2.972-10.208c3.563-0.457,5.012,1.198,5.3,3.741c0.144,0.743,0.563,0.789,0.694-0.058
			c0.205-2.609,2.788-4.134,4.808-3.75c5.525,0.943,5.204,7.026,3.397,11.153c-2.73,5.479-5.601,8.938-8.245,14.452
			C2035.154,242.712,2031.685,238.05,2029.267,233.12L2029.267,233.12z"/>
		<path id="path8520" inkscape:connector-curvature="0" sodipodi:nodetypes="ccccsccssc" fill="#D40000" d="M2065.508,198.19
			c7.144-0.476,10.868,5.627,11.595,10.438c0.436,0.765,0.671,0.549,0.837-0.042c0.352-6.175,5.875-11.221,10.993-10.53
			c8.328,0.108,13.389,9.375,11.966,17.22c-1.737,9.582-6.897,15.351-10.808,21.293c-4.422,6.152-10.373,15.039-12.29,19.316
			c0,0-6.048-9.204-13.917-20.029c-5.262-7.238-9.476-15.083-9.865-21.835C2053.571,206.302,2056.738,199.385,2065.508,198.19
			L2065.508,198.19z"/>
		<path id="path8522" inkscape:connector-curvature="0" sodipodi:nodetypes="ccccsccssc" fill="#D40000" d="M2175.042,198.19
			c7.145-0.476,10.867,5.627,11.596,10.438c0.436,0.765,0.67,0.549,0.836-0.042c0.352-6.175,5.875-11.221,10.992-10.53
			c8.326,0.108,13.391,9.375,11.967,17.22c-1.738,9.582-6.896,15.351-10.807,21.293c-4.424,6.152-10.373,15.039-12.291,19.316
			c0,0-6.051-9.204-13.918-20.029c-5.264-7.238-9.475-15.083-9.863-21.835C2163.104,206.302,2166.271,199.385,2175.042,198.19
			L2175.042,198.19z"/>
		<path id="path8584" inkscape:connector-curvature="0" sodipodi:nodetypes="ccccsccssc" fill="#D40000" d="M2065.508,454.531
			c7.144,0.473,10.868-5.629,11.595-10.438c0.436-0.766,0.671-0.551,0.837,0.043c0.352,6.174,5.875,11.219,10.993,10.527
			c8.328-0.105,13.389-9.375,11.966-17.219c-1.737-9.582-6.897-15.352-10.808-21.293c-4.422-6.152-10.373-15.039-12.29-19.316
			c0,0-6.048,9.205-13.917,20.029c-5.262,7.238-9.476,15.082-9.865,21.836c-0.448,7.715,2.719,14.631,11.489,15.826V454.531
			L2065.508,454.531z"/>
		<path id="path8586" inkscape:connector-curvature="0" sodipodi:nodetypes="ccccsccssc" fill="#D40000" d="M2175.042,454.531
			c7.145,0.473,10.867-5.629,11.596-10.438c0.436-0.766,0.67-0.551,0.836,0.043c0.352,6.174,5.875,11.219,10.992,10.527
			c8.326-0.105,13.391-9.375,11.967-17.219c-1.738-9.582-6.896-15.352-10.807-21.293c-4.424-6.152-10.373-15.039-12.291-19.316
			c0,0-6.051,9.205-13.918,20.029c-5.264,7.238-9.475,15.082-9.863,21.836c-0.449,7.715,2.719,14.631,11.488,15.826V454.531z"/>
		<path id="path8654" inkscape:connector-curvature="0" sodipodi:nodetypes="cccccccc" fill="#D40000" d="M2216.485,423.233
			c-1.584,3.473-1.758,9.406,2.973,10.209c3.563,0.459,5.012-1.199,5.299-3.742c0.145-0.742,0.563-0.789,0.695,0.061
			c0.205,2.607,2.787,4.133,4.807,3.75c5.527-0.945,5.203-7.029,3.396-11.156c-2.729-5.479-5.602-8.938-8.246-14.451
			c-3.037,5.74-6.506,10.404-8.926,15.332L2216.485,423.233L2216.485,423.233z"/>
	</g>
</g>
</svg>
