<?xml version="1.0" encoding="utf-8"?>
<!-- Generator: Adobe Illustrator 16.0.0, SVG Export Plug-In . SVG Version: 6.00 Build 0)  -->
<!DOCTYPE svg PUBLIC "-//W3C//DTD SVG 1.1//EN" "http://www.w3.org/Graphics/SVG/1.1/DTD/svg11.dtd">
<svg version="1.1"
	 id="svg4423" xmlns:dc="http://purl.org/dc/elements/1.1/" xmlns:cc="http://creativecommons.org/ns#" xmlns:rdf="http://www.w3.org/1999/02/22-rdf-syntax-ns#" xmlns:svg="http://www.w3.org/2000/svg" xmlns:sodipodi="http://sodipodi.sourceforge.net/DTD/sodipodi-0.dtd" xmlns:inkscape="http://www.inkscape.org/namespaces/inkscape" sodipodi:docname="5H.svg" inkscape:version="0.48.1 r9760"
	 xmlns="http://www.w3.org/2000/svg" xmlns:xlink="http://www.w3.org/1999/xlink" x="0px" y="0px" width="224.224px"
	 height="312.808px" viewBox="259.935 369.778 224.224 312.808" enable-background="new 259.935 369.778 224.224 312.808"
	 xml:space="preserve">
<sodipodi:namedview  showgrid="false" inkscape:cy="514.96342" inkscape:cx="199.26695" inkscape:zoom="0.98994948" borderopacity="1.0" bordercolor="#666666" pagecolor="#ffffff" id="base" inkscape:current-layer="layer1" inkscape:window-maximized="0" inkscape:window-y="17" inkscape:pageopacity="0.0" inkscape:window-width="735" inkscape:snap-page="true" inkscape:snap-bbox="true" inkscape:window-x="578" inkscape:document-units="px" inkscape:snap-global="true" inkscape:pageshadow="2" inkscape:window-height="925">
	</sodipodi:namedview>
<g id="layer1" inkscape:label="5H" inkscape:groupmode="layer">
	<g id="g8939" transform="translate(-1983.3059,198.14981)">
		<g id="g8809">
			<g id="g8915" transform="translate(-4683.8753,2918.9368)">
				<path id="rect6355" fill="#FFFFFF" d="M6938.244-2746.811h201.969c5.871,0,10.629,4.759,10.629,10.63v290.551
					c0,5.871-4.758,10.631-10.629,10.631h-201.969c-5.871,0-10.63-4.76-10.63-10.631v-290.551
					C6927.613-2742.052,6932.373-2746.811,6938.244-2746.811z"/>
				<g id="g8601" transform="matrix(0.30106207,0,0,0.30106207,5562.5812,-1947.8121)">
					<path id="path7106" inkscape:connector-curvature="0" sodipodi:nodetypes="cccssccccccccccc" fill="#D40000" d="
						M4561.227-2529.253l10.694-0.091c2.037,6.455,6.553,13.04,12.68,14.856c17.312,4.068,28.458-5.602,32.129-16.76
						c4.451-13.533-0.101-32.538-12.015-39.288c-9.887-5.602-24.565-0.876-31.299,11.09l-7.496-4.583l4.025-44.582h48.928v10.536
						h-39.654l-0.62,18.57c8.521-5.985,21.648-5.926,30.176-1.726c16.16,7.7,23.663,25.22,20.52,45.873
						c-4.353,20.536-13.941,32.175-35.6,33.845c-24.062,0.211-32.563-16.332-32.466-27.737v-0.003H4561.227z"/>
					<path id="path7122" inkscape:connector-curvature="0" sodipodi:nodetypes="cccssccccccccccc" fill="#D40000" d="
						M5248.358-1742.919l-10.688,0.097c-2.037-6.462-6.552-13.046-12.683-14.863c-17.309-4.061-28.458,5.605-32.126,16.764
						c-4.451,13.533,0.104,32.535,12.015,39.288c9.887,5.599,24.568,0.876,31.295-11.087l7.5,4.58l-4.022,44.582h-48.928v-10.536
						h39.651l0.623-18.574c-8.524,5.988-21.655,5.93-30.18,1.726c-16.16-7.701-23.659-25.217-20.52-45.866
						c4.353-20.536,13.941-32.178,35.603-33.852C5239.96-1770.867,5248.458-1754.324,5248.358-1742.919L5248.358-1742.919z"/>
				</g>
			</g>
		</g>
		<path id="path8640" inkscape:connector-curvature="0" sodipodi:nodetypes="cccccccc" fill="#D40000" d="M2253.25,232.723
			c-1.583-3.474-1.757-9.405,2.972-10.208c3.562-0.458,5.012,1.199,5.3,3.742c0.143,0.742,0.563,0.789,0.694-0.059
			c0.205-2.608,2.787-4.133,4.807-3.75c5.526,0.946,5.204,7.029,3.398,11.156c-2.731,5.479-5.602,8.938-8.245,14.452
			C2259.138,242.315,2255.668,237.651,2253.25,232.723L2253.25,232.723z"/>
		<path id="path8524" inkscape:connector-curvature="0" sodipodi:nodetypes="ccccsccssc" fill="#D40000" d="M2287.794,200.047
			c7.145-0.475,10.867,5.627,11.596,10.438c0.434,0.764,0.67,0.548,0.836-0.042c0.35-6.174,5.875-11.221,10.993-10.53
			c8.327,0.108,13.39,9.375,11.966,17.219c-1.738,9.583-6.898,15.353-10.809,21.294c-4.42,6.151-10.371,15.039-12.289,19.316
			c0,0-6.049-9.205-13.918-20.03c-5.262-7.237-9.473-15.082-9.864-21.835C2275.857,208.16,2279.024,201.244,2287.794,200.047
			L2287.794,200.047z"/>
		<path id="path8526" inkscape:connector-curvature="0" sodipodi:nodetypes="ccccsccssc" fill="#D40000" d="M2398.476,200.047
			c7.144-0.475,10.867,5.627,11.594,10.438c0.435,0.764,0.673,0.548,0.838-0.042c0.351-6.174,5.875-11.221,10.992-10.53
			c8.328,0.108,13.392,9.375,11.967,17.219c-1.737,9.583-6.899,15.353-10.809,21.294c-4.42,6.151-10.373,15.039-12.289,19.316
			c0,0-6.049-9.205-13.918-20.03c-5.262-7.237-9.473-15.082-9.865-21.835C2386.54,208.16,2389.708,201.244,2398.476,200.047
			L2398.476,200.047z"/>
		<path id="path8528" inkscape:connector-curvature="0" sodipodi:nodetypes="ccccsccssc" fill="#D40000" d="M2343.304,299.285
			c7.145-0.475,10.868,5.627,11.595,10.438c0.435,0.764,0.671,0.549,0.837-0.043c0.351-6.174,5.875-11.221,10.993-10.529
			c8.328,0.107,13.389,9.375,11.967,17.219c-1.737,9.581-6.899,15.352-10.809,21.292c-4.423,6.152-10.373,15.039-12.29,19.316
			c0,0-6.049-9.203-13.918-20.029c-5.262-7.238-9.473-15.083-9.864-21.835C2331.367,307.397,2334.533,300.48,2343.304,299.285
			L2343.304,299.285z"/>
		<path id="path8588" inkscape:connector-curvature="0" sodipodi:nodetypes="ccccsccssc" fill="#D40000" d="M2287.794,454.194
			c7.145,0.473,10.867-5.629,11.596-10.438c0.434-0.765,0.67-0.55,0.836,0.043c0.35,6.174,5.875,11.219,10.993,10.528
			c8.327-0.106,13.39-9.375,11.966-17.219c-1.738-9.582-6.898-15.352-10.809-21.293c-4.42-6.152-10.371-15.039-12.289-19.316
			c0,0-6.049,9.205-13.918,20.029c-5.262,7.238-9.473,15.082-9.864,21.836C2275.857,446.08,2279.024,452.996,2287.794,454.194
			L2287.794,454.194z"/>
		<path id="path8590" inkscape:connector-curvature="0" sodipodi:nodetypes="ccccsccssc" fill="#D40000" d="M2398.476,454.194
			c7.144,0.473,10.867-5.629,11.594-10.438c0.435-0.765,0.673-0.55,0.838,0.043c0.351,6.174,5.875,11.219,10.992,10.528
			c8.328-0.106,13.392-9.375,11.967-17.219c-1.737-9.582-6.899-15.352-10.809-21.293c-4.42-6.152-10.373-15.039-12.289-19.316
			c0,0-6.049,9.205-13.918,20.029c-5.262,7.238-9.473,15.082-9.865,21.836C2386.54,446.08,2389.708,452.996,2398.476,454.194
			L2398.476,454.194z"/>
		<path id="path8656" inkscape:connector-curvature="0" sodipodi:nodetypes="cccccccc" fill="#D40000" d="M2439.958,423.58
			c-1.584,3.474-1.758,9.406,2.971,10.209c3.563,0.457,5.012-1.198,5.301-3.742c0.142-0.743,0.562-0.788,0.693,0.06
			c0.205,2.609,2.787,4.133,4.807,3.75c5.527-0.945,5.205-7.029,3.398-11.156c-2.73-5.479-5.601-8.938-8.244-14.451
			C2445.845,413.989,2442.376,418.653,2439.958,423.58L2439.958,423.58z"/>
	</g>
</g>
</svg>
