<?xml version="1.0" encoding="utf-8"?>
<!-- Generator: Adobe Illustrator 16.0.0, SVG Export Plug-In . SVG Version: 6.00 Build 0)  -->
<!DOCTYPE svg PUBLIC "-//W3C//DTD SVG 1.1//EN" "http://www.w3.org/Graphics/SVG/1.1/DTD/svg11.dtd">
<svg version="1.1"
	 id="svg4423" xmlns:dc="http://purl.org/dc/elements/1.1/" xmlns:cc="http://creativecommons.org/ns#" xmlns:rdf="http://www.w3.org/1999/02/22-rdf-syntax-ns#" xmlns:svg="http://www.w3.org/2000/svg" xmlns:sodipodi="http://sodipodi.sourceforge.net/DTD/sodipodi-0.dtd" xmlns:inkscape="http://www.inkscape.org/namespaces/inkscape" inkscape:version="0.48.1 r9760" sodipodi:docname="6H.svg"
	 xmlns="http://www.w3.org/2000/svg" xmlns:xlink="http://www.w3.org/1999/xlink" x="0px" y="0px" width="224.224px"
	 height="312.808px" viewBox="259.935 369.778 224.224 312.808" enable-background="new 259.935 369.778 224.224 312.808"
	 xml:space="preserve">
<sodipodi:namedview  id="base" pagecolor="#ffffff" bordercolor="#666666" borderopacity="1.0" inkscape:zoom="0.49497474" inkscape:cx="40.510903" inkscape:cy="601.70801" showgrid="false" inkscape:pageshadow="2" inkscape:snap-global="true" inkscape:snap-bbox="true" inkscape:window-width="735" inkscape:window-height="925" inkscape:document-units="px" inkscape:window-x="1105" inkscape:snap-page="true" inkscape:pageopacity="0.0" inkscape:window-y="41" inkscape:window-maximized="0" inkscape:current-layer="layer1">
	</sodipodi:namedview>
<g id="layer1" inkscape:label="6h" inkscape:groupmode="layer">
	<g id="g8954" transform="translate(-2206.5344,198.14981)">
		<g id="g8823">
			<g id="g8929" transform="translate(-4683.8753,2918.9368)">
				<path id="rect6357" fill="#FFFFFF" d="M7161.472-2746.811h201.97c5.871,0,10.629,4.759,10.629,10.63v290.551
					c0,5.871-4.758,10.631-10.629,10.631h-201.969c-5.871,0-10.63-4.76-10.63-10.631v-290.551
					C7150.842-2742.052,7155.602-2746.811,7161.472-2746.811z"/>
				<g id="g8673" transform="matrix(0.30106207,0,0,0.30106207,6829.277,-2295.2794)">
					<path id="path7108" sodipodi:nodetypes="cssccacccccszsss" inkscape:connector-curvature="0" fill="#D40000" d="
						M1095.473-1380.22c-1.356-9.125-1.336-32.7-0.221-39.668c3.419-21.353,11.733-31.117,25.651-34.319
						c13.513-3.107,32.515,0.35,36.683,18.21l-11.314,0.208c-6.111-12.067-21.574-8.842-30.28-3.594
						c-6.951,4.194-10.094,21.655-8.748,22.729c-0.01,0,13.144-9.556,23.501-8.852c22.151,2.264,31.282,21.113,30.51,38.928
						c-0.697,21.422-7.623,38.539-31.094,39.681C1107.847-1347.741,1097.614-1359.687,1095.473-1380.22z M1150.512-1385.884
						c0.123-14.863-6.757-25.982-19.764-27.212c-13.004-1.226-26.119,11.233-25.207,26.384c0.908,15.2,6.903,28.006,22.674,27.935
						C1145.173-1358.854,1150.425-1375.306,1150.512-1385.884L1150.512-1385.884z"/>
					<path id="path7161" sodipodi:nodetypes="cssccacccccszsss" inkscape:connector-curvature="0" fill="#D40000" d="
						M1782.202-583.671c1.356,9.128,1.336,32.703,0.22,39.671c-3.419,21.35-11.729,31.12-25.651,34.319
						c-13.51,3.107-32.515-0.35-36.68-18.21l11.314-0.208c6.111,12.067,21.571,8.842,30.277,3.594
						c6.958-4.191,10.094-21.655,8.755-22.732c0.003,0-13.147,9.563-23.504,8.855c-22.148-2.264-31.282-21.11-30.51-38.925
						c0.701-21.425,7.623-38.542,31.094-39.684C1769.83-616.151,1780.061-604.201,1782.202-583.671L1782.202-583.671z
						 M1727.162-578.008c-0.123,14.866,6.753,25.989,19.761,27.215c13.007,1.226,26.125-11.236,25.22-26.384
						c-0.918-15.2-6.909-28.006-22.68-27.935C1732.501-605.038,1727.253-588.582,1727.162-578.008L1727.162-578.008z"/>
				</g>
			</g>
		</g>
		<path id="path8642" sodipodi:nodetypes="cccccccc" inkscape:connector-curvature="0" fill="#D40000" d="M2475.618,231.5
			c-1.583-3.473-1.756-9.405,2.972-10.208c3.562-0.458,5.012,1.198,5.3,3.742c0.142,0.743,0.562,0.788,0.695-0.059
			c0.205-2.609,2.787-4.134,4.806-3.75c5.527,0.944,5.204,7.027,3.397,11.155c-2.729,5.479-5.601,8.938-8.245,14.451
			C2481.505,241.093,2478.036,236.427,2475.618,231.5L2475.618,231.5z"/>
		<path id="path8530" sodipodi:nodetypes="ccccsccssc" inkscape:connector-curvature="0" fill="#D40000" d="M2510.906,200.489
			c7.145-0.476,10.868,5.627,11.596,10.436c0.434,0.765,0.67,0.55,0.837-0.042c0.349-6.174,5.875-11.22,10.991-10.529
			c8.328,0.107,13.391,9.375,11.968,17.219c-1.739,9.582-6.899,15.352-10.809,21.293c-4.422,6.152-10.373,15.039-12.291,19.316
			c0,0-6.048-9.204-13.917-20.029c-5.262-7.238-9.473-15.083-9.865-21.835C2498.969,208.601,2502.136,201.685,2510.906,200.489
			L2510.906,200.489z"/>
		<path id="path8532" sodipodi:nodetypes="ccccsccssc" inkscape:connector-curvature="0" fill="#D40000" d="M2622.439,200.489
			c7.146-0.476,10.867,5.627,11.596,10.436c0.433,0.765,0.67,0.55,0.836-0.042c0.351-6.174,5.875-11.22,10.992-10.529
			c8.328,0.107,13.392,9.375,11.967,17.219c-1.737,9.582-6.899,15.352-10.809,21.293c-4.42,6.152-10.371,15.039-12.289,19.316
			c0,0-6.049-9.204-13.918-20.029c-5.262-7.238-9.473-15.083-9.865-21.835C2610.501,208.601,2613.669,201.685,2622.439,200.489
			L2622.439,200.489z"/>
		<path id="path8534" sodipodi:nodetypes="ccccsccssc" inkscape:connector-curvature="0" fill="#D40000" d="M2622.439,299.384
			c7.146-0.476,10.867,5.627,11.596,10.437c0.433,0.764,0.67,0.549,0.836-0.042c0.351-6.175,5.875-11.221,10.992-10.53
			c8.328,0.107,13.392,9.375,11.967,17.22c-1.737,9.581-6.899,15.351-10.809,21.292c-4.42,6.151-10.371,15.039-12.289,19.315
			c0,0-6.049-9.203-13.918-20.028c-5.262-7.238-9.473-15.082-9.865-21.836C2610.501,307.495,2613.669,300.579,2622.439,299.384
			L2622.439,299.384z"/>
		<path id="path8536" sodipodi:nodetypes="ccccsccssc" inkscape:connector-curvature="0" fill="#D40000" d="M2510.906,299.384
			c7.145-0.476,10.868,5.627,11.596,10.437c0.434,0.764,0.67,0.549,0.837-0.042c0.349-6.175,5.875-11.221,10.991-10.53
			c8.328,0.107,13.391,9.375,11.968,17.22c-1.739,9.581-6.899,15.351-10.809,21.292c-4.422,6.151-10.373,15.039-12.291,19.315
			c0,0-6.048-9.203-13.917-20.028c-5.262-7.238-9.473-15.082-9.865-21.836C2498.969,307.495,2502.136,300.579,2510.906,299.384
			L2510.906,299.384z"/>
		<path id="path8592" sodipodi:nodetypes="ccccsccssc" inkscape:connector-curvature="0" fill="#D40000" d="M2510.906,455.475
			c7.145,0.475,10.868-5.627,11.596-10.438c0.434-0.764,0.67-0.549,0.837,0.043c0.349,6.174,5.875,11.222,10.991,10.529
			c8.328-0.107,13.391-9.375,11.968-17.219c-1.739-9.58-6.899-15.351-10.809-21.293c-4.422-6.152-10.373-15.039-12.291-19.316
			c0,0-6.048,9.205-13.917,20.029c-5.262,7.238-9.473,15.082-9.865,21.836C2498.969,447.362,2502.136,454.278,2510.906,455.475
			L2510.906,455.475z"/>
		<path id="path8594" sodipodi:nodetypes="ccccsccssc" inkscape:connector-curvature="0" fill="#D40000" d="M2622.439,455.475
			c7.146,0.475,10.867-5.627,11.596-10.438c0.433-0.764,0.67-0.549,0.836,0.043c0.351,6.174,5.875,11.222,10.992,10.529
			c8.328-0.107,13.392-9.375,11.967-17.219c-1.737-9.58-6.899-15.351-10.809-21.293c-4.42-6.152-10.371-15.039-12.289-19.316
			c0,0-6.049,9.205-13.918,20.029c-5.262,7.238-9.473,15.082-9.865,21.836C2610.501,447.362,2613.669,454.278,2622.439,455.475
			L2622.439,455.475z"/>
		<path id="path8658" sodipodi:nodetypes="cccccccc" inkscape:connector-curvature="0" fill="#D40000" d="M2664.433,422.358
			c-1.584,3.473-1.756,9.404,2.971,10.207c3.563,0.459,5.013-1.197,5.302-3.74c0.141-0.744,0.561-0.789,0.692,0.058
			c0.205,2.608,2.787,4.133,4.808,3.75c5.526-0.945,5.205-7.027,3.397-11.154c-2.729-5.48-5.6-8.938-8.244-14.453
			C2670.32,412.766,2666.851,417.43,2664.433,422.358L2664.433,422.358z"/>
	</g>
</g>
</svg>
