<?xml version="1.0" encoding="utf-8"?>
<!-- Generator: Adobe Illustrator 16.0.0, SVG Export Plug-In . SVG Version: 6.00 Build 0)  -->
<!DOCTYPE svg PUBLIC "-//W3C//DTD SVG 1.1//EN" "http://www.w3.org/Graphics/SVG/1.1/DTD/svg11.dtd">
<svg version="1.1"
	 id="svg4423" xmlns:dc="http://purl.org/dc/elements/1.1/" xmlns:cc="http://creativecommons.org/ns#" xmlns:rdf="http://www.w3.org/1999/02/22-rdf-syntax-ns#" xmlns:svg="http://www.w3.org/2000/svg" xmlns:sodipodi="http://sodipodi.sourceforge.net/DTD/sodipodi-0.dtd" xmlns:inkscape="http://www.inkscape.org/namespaces/inkscape" inkscape:version="0.48.1 r9760" sodipodi:docname="7H.svg"
	 xmlns="http://www.w3.org/2000/svg" xmlns:xlink="http://www.w3.org/1999/xlink" x="0px" y="0px" width="224.22px"
	 height="312.803px" viewBox="259.938 369.781 224.22 312.803" enable-background="new 259.938 369.781 224.22 312.803"
	 xml:space="preserve">
<sodipodi:namedview  id="base" pagecolor="#ffffff" bordercolor="#666666" borderopacity="1.0" inkscape:zoom="0.69999999" inkscape:cx="133.5404" inkscape:cy="490.34926" showgrid="false" inkscape:pageshadow="2" inkscape:snap-global="true" inkscape:snap-bbox="true" inkscape:window-width="735" inkscape:window-height="925" inkscape:document-units="px" inkscape:window-x="29" inkscape:snap-page="true" inkscape:pageopacity="0.0" inkscape:window-y="29" inkscape:window-maximized="0" inkscape:current-layer="layer1">
	</sodipodi:namedview>
<g id="layer1" inkscape:label="7H" inkscape:groupmode="layer">
	<g id="g9031" transform="translate(-1090.3923,-113.66123)">
		<g id="g8838">
			<g id="g8853" transform="translate(-4683.8753,2918.9368)">
				<path id="rect6359" fill="#FFFFFF" d="M6045.331-2435H6247.3c5.871,0,10.631,4.759,10.631,10.629v290.551
					c0,5.871-4.76,10.633-10.631,10.633h-201.969c-5.871,0-10.63-4.762-10.63-10.633v-290.551
					C6034.701-2430.241,6039.46-2435,6045.331-2435z"/>
				<g id="g8660" transform="matrix(0.30106207,0,0,0.30106207,5449.5822,-1980.8821)">
					<path id="path7110" sodipodi:nodetypes="cccccccccc" inkscape:connector-curvature="0" fill="#D40000" d="M1984.513-1353.899
						c7.081-36.836,14.642-64.472,34.478-94.49h-40.307v12.923h-10.714v-24.354h58.971l7.269,11.431
						c-21.062,22.576-40.349,95.554-36.933,94.49H1984.513L1984.513-1353.899z"/>
					<path id="path7126" sodipodi:nodetypes="cccccccccc" inkscape:connector-curvature="0" fill="#D40000" d="M2643.988-627.168
						c-7.084,36.836-14.642,64.466-34.481,94.49h40.306v-12.923h10.717v24.347h-58.971l-7.272-11.431
						c21.065-22.576,40.352-95.554,36.933-94.49h12.767V-627.168z"/>
				</g>
			</g>
		</g>
		<path id="path8632" sodipodi:nodetypes="cccccccc" inkscape:connector-curvature="0" fill="#D40000" d="M1359.652,545.896
			c-1.583-3.471-1.756-9.404,2.971-10.207c3.563-0.459,5.013,1.197,5.301,3.742c0.142,0.742,0.562,0.787,0.693-0.059
			c0.205-2.609,2.788-4.133,4.808-3.75c5.525,0.943,5.203,7.027,3.397,11.154c-2.73,5.48-5.601,8.939-8.245,14.451
			C1365.54,555.488,1362.071,550.824,1359.652,545.896L1359.652,545.896z"/>
		<path id="path8538" sodipodi:nodetypes="ccccsccssc" inkscape:connector-curvature="0" fill="#D40000" d="M1394.011,513.744
			c7.145-0.475,10.868,5.627,11.596,10.438c0.434,0.764,0.671,0.548,0.838-0.043c0.349-6.174,5.874-11.219,10.992-10.529
			c8.328,0.107,13.39,9.375,11.967,17.219c-1.739,9.582-6.9,15.352-10.809,21.293c-4.422,6.152-10.372,15.039-12.291,19.316
			c0,0-6.048-9.205-13.916-20.029c-5.263-7.238-9.474-15.082-9.865-21.835C1382.074,521.857,1385.242,514.94,1394.011,513.744
			L1394.011,513.744z"/>
		<path id="path8540" sodipodi:nodetypes="ccccsccssc" inkscape:connector-curvature="0" fill="#D40000" d="M1505.544,513.744
			c7.146-0.475,10.869,5.627,11.597,10.438c0.434,0.764,0.67,0.548,0.836-0.043c0.35-6.174,5.875-11.219,10.991-10.529
			c8.328,0.107,13.392,9.375,11.968,17.219c-1.738,9.582-6.898,15.352-10.808,21.293c-4.422,6.152-10.373,15.039-12.291,19.316
			c0,0-6.049-9.205-13.916-20.029c-5.264-7.238-9.475-15.082-9.864-21.835C1493.606,521.857,1496.774,514.94,1505.544,513.744
			L1505.544,513.744z"/>
		<path id="path8542" sodipodi:nodetypes="ccccsccssc" inkscape:connector-curvature="0" fill="#D40000" d="M1450.445,563.869
			c7.146-0.477,10.868,5.627,11.596,10.436c0.434,0.764,0.671,0.549,0.837-0.041c0.349-6.176,5.875-11.221,10.993-10.531
			c8.328,0.109,13.39,9.375,11.968,17.221c-1.738,9.58-6.9,15.35-10.81,21.293c-4.422,6.15-10.373,15.039-12.29,19.314
			c0,0-6.049-9.203-13.918-20.027c-5.262-7.238-9.473-15.082-9.865-21.836C1438.509,571.98,1441.675,565.064,1450.445,563.869
			L1450.445,563.869z"/>
		<path id="path8544" sodipodi:nodetypes="ccccsccssc" inkscape:connector-curvature="0" fill="#D40000" d="M1394.011,613.992
			c7.145-0.475,10.868,5.629,11.596,10.438c0.434,0.764,0.671,0.549,0.838-0.043c0.349-6.174,5.874-11.221,10.992-10.529
			c8.328,0.107,13.39,9.375,11.967,17.219c-1.739,9.582-6.9,15.352-10.809,21.293c-4.422,6.15-10.372,15.041-12.291,19.316
			c0,0-6.048-9.205-13.916-20.029c-5.263-7.238-9.474-15.082-9.865-21.834C1382.074,622.105,1385.242,615.189,1394.011,613.992
			L1394.011,613.992z"/>
		<path id="path8546" sodipodi:nodetypes="ccccsccssc" inkscape:connector-curvature="0" fill="#D40000" d="M1505.544,613.992
			c7.146-0.475,10.869,5.629,11.597,10.438c0.434,0.764,0.67,0.549,0.836-0.043c0.35-6.174,5.875-11.221,10.991-10.529
			c8.328,0.107,13.392,9.375,11.968,17.219c-1.738,9.582-6.898,15.352-10.808,21.293c-4.422,6.15-10.373,15.041-12.291,19.316
			c0,0-6.049-9.205-13.916-20.029c-5.264-7.238-9.475-15.082-9.864-21.834C1493.606,622.105,1496.774,615.189,1505.544,613.992
			L1505.544,613.992z"/>
		<path id="path8666" sodipodi:nodetypes="cccccccc" inkscape:connector-curvature="0" fill="#D40000" d="M1548.468,736.756
			c-1.584,3.473-1.758,9.406,2.972,10.209c3.563,0.457,5.012-1.199,5.301-3.742c0.141-0.744,0.562-0.789,0.693,0.059
			c0.204,2.609,2.786,4.131,4.807,3.75c5.527-0.945,5.205-7.029,3.397-11.156c-2.729-5.48-5.6-8.938-8.243-14.451
			C1554.354,727.164,1550.886,731.828,1548.468,736.756L1548.468,736.756z"/>
		<path id="path8620" sodipodi:nodetypes="ccccsccssc" inkscape:connector-curvature="0" fill="#D40000" d="M1505.544,770.086
			c7.146,0.475,10.869-5.627,11.597-10.439c0.434-0.764,0.67-0.547,0.836,0.043c0.35,6.176,5.875,11.223,10.991,10.531
			c8.328-0.107,13.392-9.377,11.968-17.219c-1.738-9.582-6.898-15.352-10.808-21.293c-4.422-6.154-10.373-15.041-12.291-19.318
			c0,0-6.049,9.205-13.916,20.029c-5.264,7.24-9.475,15.084-9.864,21.836C1493.606,761.97,1496.774,768.888,1505.544,770.086
			L1505.544,770.086z"/>
		<path id="path8622" sodipodi:nodetypes="ccccsccssc" inkscape:connector-curvature="0" fill="#D40000" d="M1394.011,770.086
			c7.145,0.475,10.868-5.627,11.596-10.439c0.434-0.764,0.671-0.547,0.838,0.043c0.349,6.176,5.874,11.223,10.992,10.531
			c8.328-0.107,13.39-9.377,11.967-17.219c-1.739-9.582-6.9-15.352-10.809-21.293c-4.422-6.154-10.372-15.041-12.291-19.318
			c0,0-6.048,9.205-13.916,20.029c-5.263,7.24-9.474,15.084-9.865,21.836C1382.074,761.97,1385.242,768.888,1394.011,770.086
			L1394.011,770.086z"/>
	</g>
</g>
</svg>
