<?xml version="1.0" encoding="utf-8"?>
<!-- Generator: Adobe Illustrator 16.0.0, SVG Export Plug-In . SVG Version: 6.00 Build 0)  -->
<!DOCTYPE svg PUBLIC "-//W3C//DTD SVG 1.1//EN" "http://www.w3.org/Graphics/SVG/1.1/DTD/svg11.dtd">
<svg version="1.1"
	 id="svg4423" xmlns:dc="http://purl.org/dc/elements/1.1/" xmlns:cc="http://creativecommons.org/ns#" xmlns:rdf="http://www.w3.org/1999/02/22-rdf-syntax-ns#" xmlns:svg="http://www.w3.org/2000/svg" xmlns:sodipodi="http://sodipodi.sourceforge.net/DTD/sodipodi-0.dtd" xmlns:inkscape="http://www.inkscape.org/namespaces/inkscape" inkscape:version="0.48.1 r9760" sodipodi:docname="AH.svg"
	 xmlns="http://www.w3.org/2000/svg" xmlns:xlink="http://www.w3.org/1999/xlink" x="0px" y="0px" width="224.226px"
	 height="312.808px" viewBox="259.935 369.778 224.226 312.808" enable-background="new 259.935 369.778 224.226 312.808"
	 xml:space="preserve">
<sodipodi:namedview  id="base" pagecolor="#ffffff" bordercolor="#666666" borderopacity="1.0" inkscape:zoom="0.98994948" inkscape:cx="238.22195" inkscape:cy="442.43337" showgrid="false" inkscape:pageshadow="2" inkscape:snap-global="true" inkscape:snap-bbox="true" inkscape:window-width="735" inkscape:window-height="925" inkscape:document-units="px" inkscape:window-x="784" inkscape:snap-page="true" inkscape:pageopacity="0.0" inkscape:window-y="63" inkscape:window-maximized="0" inkscape:current-layer="layer1">
	</sodipodi:namedview>
<g id="layer1" inkscape:label="Layer 1" inkscape:groupmode="layer">
	<g id="g8889" transform="translate(-1090.3923,198.14981)">
		<g id="g8763">
			<g id="g8869" transform="translate(-4683.8753,2918.9368)">
				<path id="rect3232" fill="#FFFFFF" d="M6045.331-2746.811H6247.3c5.871,0,10.631,4.759,10.631,10.63v290.551
					c0,5.871-4.76,10.631-10.631,10.631h-201.969c-5.871,0-10.63-4.76-10.63-10.631v-290.551
					C6034.701-2742.052,6039.46-2746.811,6045.331-2746.811z"/>
				<g id="g8567" transform="matrix(0.30106207,0,0,0.30106207,5730.6419,-1948.1116)">
					<path id="path7183" sodipodi:nodetypes="ccccccccccccccccccccc" inkscape:connector-curvature="0" fill="#D40000" d="
						M1033.988-2499.931v-9.092h8.839l18.814-97.228h10.708l20.737,97.228h7.133v9.092h-24.305v-9.092h6.565l-2.618-14.898h-24.532
						l-1.891,14.898h6.565v9.092H1033.988z M1077.762-2534.529l-10.659-52.049l-9.987,52.049H1077.762z"/>
					<path id="path7186" sodipodi:nodetypes="ccccccccccccccccccccc" inkscape:connector-curvature="0" fill="#D40000" d="
						M1727.392-1770.248v9.089h-8.836l-18.814,97.227h-10.711l-20.734-97.227h-7.136v-9.089h24.308v9.089h-6.565l2.615,14.905
						h24.535l1.894-14.905h-6.565v-9.089H1727.392z M1683.622-1735.651l10.659,52.049l9.984-52.049H1683.622z"/>
				</g>
			</g>
		</g>
		<path id="path8626" sodipodi:nodetypes="cccccccc" inkscape:connector-curvature="0" fill="#D40000" d="M1359.107,232.88
			c-1.583-3.473-1.757-9.405,2.971-10.208c3.563-0.458,5.013,1.199,5.301,3.742c0.142,0.743,0.562,0.789,0.694-0.059
			c0.204-2.609,2.787-4.132,4.807-3.75c5.526,0.946,5.203,7.029,3.397,11.156c-2.729,5.479-5.601,8.938-8.245,14.45
			C1364.994,242.472,1361.525,237.808,1359.107,232.88L1359.107,232.88z"/>
		<path id="path8512" sodipodi:nodetypes="ccccsccssc" inkscape:connector-curvature="0" fill="#D40000" d="M1450.39,299.285
			c7.145-0.475,10.869,5.627,11.596,10.438c0.434,0.764,0.671,0.549,0.837-0.043c0.35-6.174,5.875-11.221,10.993-10.529
			c8.328,0.107,13.389,9.375,11.967,17.219c-1.738,9.581-6.9,15.352-10.809,21.292c-4.422,6.152-10.373,15.039-12.29,19.316
			c0,0-6.049-9.203-13.918-20.029c-5.263-7.238-9.474-15.083-9.864-21.835C1438.453,307.397,1441.62,300.48,1450.39,299.285
			L1450.39,299.285z"/>
		<path id="path8648" sodipodi:nodetypes="cccccccc" inkscape:connector-curvature="0" fill="#D40000" d="M1547.487,423.567
			c-1.584,3.473-1.756,9.406,2.971,10.209c3.563,0.459,5.013-1.199,5.302-3.742c0.143-0.742,0.561-0.789,0.692,0.06
			c0.205,2.608,2.789,4.133,4.808,3.75c5.526-0.945,5.204-7.029,3.397-11.156c-2.729-5.479-5.6-8.938-8.244-14.451
			C1553.374,413.975,1549.905,418.639,1547.487,423.567L1547.487,423.567z"/>
	</g>
</g>
</svg>
