<?xml version="1.0" encoding="utf-8"?>
<!-- Generator: Adobe Illustrator 16.0.0, SVG Export Plug-In . SVG Version: 6.00 Build 0)  -->
<!DOCTYPE svg PUBLIC "-//W3C//DTD SVG 1.1//EN" "http://www.w3.org/Graphics/SVG/1.1/DTD/svg11.dtd">
<svg version="1.1"
	 id="svg4423" xmlns:dc="http://purl.org/dc/elements/1.1/" xmlns:cc="http://creativecommons.org/ns#" xmlns:rdf="http://www.w3.org/1999/02/22-rdf-syntax-ns#" xmlns:svg="http://www.w3.org/2000/svg" xmlns:sodipodi="http://sodipodi.sourceforge.net/DTD/sodipodi-0.dtd" xmlns:inkscape="http://www.inkscape.org/namespaces/inkscape" sodipodi:docname="3H.svg" inkscape:version="0.48.1 r9760"
	 xmlns="http://www.w3.org/2000/svg" xmlns:xlink="http://www.w3.org/1999/xlink" x="0px" y="0px" width="223.229px"
	 height="311.812px" viewBox="260.433 370.275 223.229 311.812" enable-background="new 260.433 370.275 223.229 311.812"
	 xml:space="preserve">
<sodipodi:namedview  showgrid="false" inkscape:cy="436.29345" inkscape:cx="190.96525" inkscape:zoom="0.98994948" borderopacity="1.0" bordercolor="#666666" pagecolor="#ffffff" id="base" inkscape:current-layer="layer1" inkscape:window-maximized="0" inkscape:window-y="117" inkscape:pageopacity="0.0" inkscape:window-width="735" inkscape:snap-page="true" inkscape:snap-bbox="true" inkscape:window-x="1078" inkscape:document-units="px" inkscape:snap-global="true" inkscape:pageshadow="2" inkscape:window-height="925">
	</sodipodi:namedview>
<g id="layer1" inkscape:label="3H" inkscape:groupmode="layer" sodipodi:insensitive="true">
	<g id="g8912" transform="translate(-1536.8493,198.14981)">
		<g id="g8784">
			<g id="g8890" transform="translate(-4683.8753,2918.9368)">
				<path id="rect6351" fill="#FFFFFF" d="M6491.788-2746.812h201.969c5.871,0,10.631,4.759,10.631,10.63v290.551
					c0,5.871-4.76,10.631-10.631,10.631h-201.969c-5.871,0-10.63-4.76-10.63-10.631v-290.551
					C6481.158-2742.053,6485.917-2746.812,6491.788-2746.812z"/>
				<g id="g8582" transform="matrix(0.30106207,0,0,0.30106207,5635.595,-1948.9541)">
					<path id="path7102" inkscape:connector-curvature="0" sodipodi:nodetypes="ccccscccccccccccscc" fill="#D40000" d="
						M2836.669-2519.895l8.463-6.111c7.354,11.739,15.56,19.475,28.117,18.146c18.843-1.268,26.65-20.663,22.703-35.285
						c-3.808-13.104-19.417-19.495-31.814-12.498c-2.923,1.648-6.302,3.688-6.302,3.688l-4.418-7.195l29.109-33.865h-31.587v14.016
						h-12.122v-25.126h61.744v8.528c0,0-16.54,16.838-22.012,26.067c13.468,0.49,24.322,8.862,28.208,22.116
						c2.28,6.971,1.255,22.923-1.716,29.787c-4.963,11.463-18.547,20.76-30.964,21.298c-20.828,1.375-31.893-12.962-37.407-23.562
						l0,0V-2519.895L2836.669-2519.895z"/>
					<path id="path7118" inkscape:connector-curvature="0" sodipodi:nodetypes="ccccscccccccccccscc" fill="#D40000" d="
						M3522.01-1744.689l-8.466,6.108c-7.347-11.736-15.557-19.472-28.117-18.142c-18.846,1.268-26.644,20.659-22.7,35.285
						c3.808,13.105,19.417,19.498,31.814,12.498c2.919-1.648,6.306-3.37,6.306-3.37l5.222,6.75l-29.92,33.991h31.587v-14.013h12.125
						v25.126h-61.748v-8.531c0,0,16.537-16.835,22.012-26.06c-13.468-0.493-24.325-8.868-28.207-22.119
						c-2.277-6.974-1.252-22.927,1.719-29.787c4.957-11.463,18.548-20.76,30.958-21.298
						C3505.428-1769.63,3516.493-1755.293,3522.01-1744.689L3522.01-1744.689z"/>
				</g>
			</g>
		</g>
		<path id="path8630" inkscape:connector-curvature="0" sodipodi:nodetypes="cccccccc" fill="#D40000" d="M1807.025,232.79
			c-1.583-3.473-1.757-9.404,2.971-10.207c3.563-0.458,5.014,1.198,5.302,3.741c0.142,0.743,0.562,0.789,0.693-0.059
			c0.205-2.609,2.787-4.133,4.809-3.75c5.524,0.944,5.204,7.027,3.396,11.155c-2.729,5.479-5.601,8.938-8.245,14.45
			C1812.913,242.384,1809.443,237.719,1807.025,232.79L1807.025,232.79z"/>
		<path id="path8516" inkscape:connector-curvature="0" sodipodi:nodetypes="ccccsccssc" fill="#D40000" d="M1896.784,200.863
			c7.146-0.476,10.868,5.627,11.595,10.438c0.436,0.765,0.673,0.549,0.839-0.042c0.349-6.174,5.875-11.22,10.993-10.529
			c8.325,0.107,13.39,9.375,11.966,17.219c-1.738,9.582-6.898,15.353-10.809,21.293c-4.422,6.152-10.373,15.039-12.291,19.316
			c0,0-6.049-9.204-13.917-20.029c-5.262-7.238-9.474-15.083-9.865-21.835C1884.846,208.975,1888.013,202.059,1896.784,200.863
			L1896.784,200.863z"/>
		<path id="path8518" inkscape:connector-curvature="0" sodipodi:nodetypes="ccccsccssc" fill="#D40000" d="M1896.847,299.284
			c7.144-0.475,10.868,5.627,11.595,10.438c0.434,0.764,0.671,0.549,0.837-0.043c0.35-6.175,5.875-11.222,10.993-10.529
			c8.328,0.107,13.389,9.375,11.967,17.219c-1.737,9.581-6.898,15.353-10.809,21.292c-4.42,6.152-10.373,15.039-12.29,19.316
			c0,0-6.049-9.203-13.917-20.029c-5.263-7.238-9.474-15.083-9.865-21.835C1884.91,307.397,1888.077,300.48,1896.847,299.284
			L1896.847,299.284z"/>
		<path id="path8652" inkscape:connector-curvature="0" sodipodi:nodetypes="cccccccc" fill="#D40000" d="M1994.012,424.001
			c-1.582,3.475-1.757,9.406,2.971,10.209c3.563,0.457,5.012-1.197,5.301-3.74c0.145-0.744,0.563-0.789,0.695,0.059
			c0.203,2.609,2.787,4.131,4.805,3.75c5.527-0.945,5.205-7.029,3.4-11.156c-2.732-5.479-5.604-8.938-8.246-14.451
			C1999.9,414.409,1996.43,419.073,1994.012,424.001L1994.012,424.001z"/>
		<path id="path8582" inkscape:connector-curvature="0" sodipodi:nodetypes="ccccsccssc" fill="#D40000" d="M1896.784,455.458
			c7.146,0.477,10.868-5.627,11.595-10.436c0.436-0.766,0.673-0.549,0.839,0.041c0.349,6.174,5.875,11.221,10.993,10.531
			c8.325-0.109,13.39-9.377,11.966-17.221c-1.738-9.582-6.898-15.352-10.809-21.293c-4.422-6.15-10.373-15.041-12.291-19.316
			c0,0-6.049,9.205-13.917,20.031c-5.262,7.236-9.474,15.08-9.865,21.834C1884.846,447.348,1888.013,454.264,1896.784,455.458
			L1896.784,455.458z"/>
	</g>
</g>
</svg>
