<?xml version="1.0" encoding="utf-8"?>
<!-- Generator: Adobe Illustrator 16.0.0, SVG Export Plug-In . SVG Version: 6.00 Build 0)  -->
<!DOCTYPE svg PUBLIC "-//W3C//DTD SVG 1.1//EN" "http://www.w3.org/Graphics/SVG/1.1/DTD/svg11.dtd">
<svg version="1.1"
	 id="svg4423" xmlns:dc="http://purl.org/dc/elements/1.1/" xmlns:cc="http://creativecommons.org/ns#" xmlns:rdf="http://www.w3.org/1999/02/22-rdf-syntax-ns#" xmlns:svg="http://www.w3.org/2000/svg" xmlns:sodipodi="http://sodipodi.sourceforge.net/DTD/sodipodi-0.dtd" xmlns:inkscape="http://www.inkscape.org/namespaces/inkscape" inkscape:version="0.48.1 r9760" sodipodi:docname="8H.svg"
	 xmlns="http://www.w3.org/2000/svg" xmlns:xlink="http://www.w3.org/1999/xlink" x="0px" y="0px" width="224.226px"
	 height="312.809px" viewBox="259.936 369.778 224.226 312.809" enable-background="new 259.936 369.778 224.226 312.809"
	 xml:space="preserve">
<sodipodi:namedview  id="base" pagecolor="#ffffff" bordercolor="#666666" borderopacity="1.0" inkscape:zoom="0.98994948" inkscape:cx="187.31121" inkscape:cy="375.39925" showgrid="false" inkscape:pageshadow="2" inkscape:snap-global="true" inkscape:snap-bbox="true" inkscape:window-width="735" inkscape:window-height="925" inkscape:document-units="px" inkscape:window-x="803" inkscape:snap-page="true" inkscape:pageopacity="0.0" inkscape:window-y="66" inkscape:window-maximized="0" inkscape:current-layer="layer1">
	</sodipodi:namedview>
<g id="layer1" inkscape:label="8H" inkscape:groupmode="layer">
	<g id="g9013" transform="translate(-1313.6208,-113.66123)">
		<g id="g8854">
			<g id="g8836" transform="translate(-4683.8753,2918.9368)">
				<path id="rect6361" fill="#FFFFFF" d="M6268.561-2435h201.969c5.871,0,10.631,4.759,10.631,10.63v290.551
					c0,5.871-4.76,10.632-10.631,10.632h-201.969c-5.871,0-10.63-4.761-10.63-10.632v-290.551
					C6257.931-2430.241,6262.689-2435,6268.561-2435z"/>
				<g id="g8646" transform="matrix(0.30106207,0,0,0.30106207,5370.0941,-1979.9322)">
					<path id="path7112" sodipodi:nodetypes="zcszsczzzssssssssss" inkscape:connector-curvature="0" fill="#D40000" d="
						M2971.744-1386.817c0.532-14.532,5.884-19.991,16.423-27.598c-8.408-5.965-11.95-14.736-11.236-22.213
						c1.732-18.094,15.979-27.143,31.506-26.751c15.528,0.396,28.915,12.501,29.956,25.648c0.908,11.437-2.56,16.948-10.821,22.972
						c9.809,8.109,16.079,13.452,15.839,27.766c-0.237,14.318-12.641,31.354-34.257,31.879
						C2987.531-1354.591,2971.212-1372.282,2971.744-1386.817L2971.744-1386.817L2971.744-1386.817z M3032.106-1386.769
						c0.928-13.16-10.921-22.038-24.292-22.177c-13.027-0.136-24.682,10.785-24.685,22.599c0,12.693,15.158,19.586,24.948,19.625
						C3019.978-1366.68,3031.308-1375.432,3032.106-1386.769L3032.106-1386.769z M3027.828-1433.845
						c0.26-11.087-10.153-19.031-20.886-18.713c-9.553,0.286-19.667,7.444-19.673,16.712c-0.01,11.593,11.502,17.38,21.314,17.597
						C3017.487-1418.051,3027.633-1425.473,3027.828-1433.845z"/>
					<path id="path7128" sodipodi:nodetypes="zcszsczzzssssssssss" inkscape:connector-curvature="0" fill="#D40000" d="
						M3667.753-600.564c-0.532,14.532-5.884,19.988-16.426,27.601c8.408,5.962,11.95,14.74,11.236,22.213
						c-1.732,18.094-15.979,27.14-31.503,26.748c-15.531-0.389-28.915-12.501-29.959-25.645
						c-0.908-11.437,2.563-16.955,10.821-22.972c-9.809-8.109-16.076-13.448-15.843-27.766c0.24-14.318,12.644-31.354,34.26-31.879
						c21.623-0.526,37.939,17.172,37.407,31.704h0.007V-600.564z M3607.387-600.616c-0.928,13.163,10.925,22.044,24.295,22.181
						c13.027,0.136,24.678-10.779,24.685-22.599c0-12.689-15.161-19.589-24.951-19.618
						C3619.519-620.701,3608.185-611.946,3607.387-600.616L3607.387-600.616z M3611.669-553.533
						c-0.259,11.087,10.153,19.031,20.883,18.71c9.556-0.279,19.67-7.441,19.676-16.705c0.007-11.593-11.502-17.38-21.318-17.6
						C3622.01-569.33,3611.864-561.912,3611.669-553.533z"/>
				</g>
			</g>
		</g>
		<path id="path8634" sodipodi:nodetypes="cccccccc" inkscape:connector-curvature="0" fill="#D40000" d="M1583.636,546.847
			c-1.583-3.473-1.756-9.405,2.971-10.208c3.562-0.458,5.012,1.198,5.3,3.742c0.143,0.743,0.563,0.788,0.694-0.059
			c0.205-2.609,2.788-4.134,4.807-3.75c5.526,0.944,5.204,7.027,3.398,11.154c-2.731,5.479-5.602,8.938-8.245,14.452
			C1589.523,556.439,1586.055,551.776,1583.636,546.847L1583.636,546.847z"/>
		<path id="path8548" sodipodi:nodetypes="ccccsccssc" inkscape:connector-curvature="0" fill="#D40000" d="M1618.614,511.573
			c7.146-0.475,10.868,5.627,11.596,10.438c0.434,0.764,0.671,0.548,0.837-0.042c0.35-6.174,5.875-11.22,10.992-10.53
			c8.328,0.108,13.391,9.375,11.967,17.219c-1.737,9.583-6.899,15.353-10.809,21.294c-4.421,6.151-10.372,15.04-12.289,19.316
			c0,0-6.049-9.205-13.918-20.029c-5.262-7.238-9.473-15.083-9.864-21.836C1606.678,519.686,1609.845,512.77,1618.614,511.573
			L1618.614,511.573z"/>
		<path id="path8550" sodipodi:nodetypes="ccccsccssc" inkscape:connector-curvature="0" fill="#D40000" d="M1728.147,511.573
			c7.145-0.475,10.869,5.627,11.596,10.438c0.434,0.764,0.67,0.548,0.836-0.042c0.351-6.174,5.875-11.22,10.994-10.53
			c8.328,0.108,13.389,9.375,11.965,17.219c-1.738,9.583-6.897,15.353-10.807,21.294c-4.422,6.151-10.373,15.04-12.291,19.316
			c0,0-6.047-9.205-13.916-20.029c-5.263-7.238-9.476-15.083-9.865-21.836C1716.208,519.686,1719.376,512.77,1728.147,511.573
			L1728.147,511.573z"/>
		<path id="path8552" sodipodi:nodetypes="ccccsccssc" inkscape:connector-curvature="0" fill="#D40000" d="M1672.797,561.698
			c7.145-0.476,10.868,5.627,11.596,10.437c0.434,0.764,0.671,0.548,0.837-0.043c0.35-6.174,5.875-11.22,10.994-10.53
			c8.328,0.108,13.389,9.376,11.965,17.22c-1.738,9.582-6.898,15.352-10.808,21.294c-4.422,6.151-10.373,15.039-12.291,19.315
			c0,0-6.048-9.205-13.917-20.029c-5.262-7.238-9.474-15.082-9.864-21.836C1660.86,569.811,1664.027,562.894,1672.797,561.698
			L1672.797,561.698z"/>
		<path id="path8554" sodipodi:nodetypes="ccccsccssc" inkscape:connector-curvature="0" fill="#D40000" d="M1618.614,611.823
			c7.146-0.476,10.868,5.627,11.596,10.437c0.434,0.764,0.671,0.549,0.837-0.043c0.35-6.174,5.875-11.22,10.992-10.529
			c8.328,0.107,13.391,9.375,11.967,17.22c-1.737,9.581-6.899,15.351-10.809,21.292c-4.421,6.151-10.372,15.039-12.289,19.315
			c0,0-6.049-9.203-13.918-20.029c-5.262-7.237-9.473-15.082-9.864-21.835C1606.678,619.935,1609.845,613.018,1618.614,611.823
			L1618.614,611.823z"/>
		<path id="path8556" sodipodi:nodetypes="ccccsccssc" inkscape:connector-curvature="0" fill="#D40000" d="M1728.147,611.823
			c7.145-0.476,10.869,5.627,11.596,10.437c0.434,0.764,0.67,0.549,0.836-0.043c0.351-6.174,5.875-11.22,10.994-10.529
			c8.328,0.107,13.389,9.375,11.965,17.22c-1.738,9.581-6.897,15.351-10.807,21.292c-4.422,6.151-10.373,15.039-12.291,19.315
			c0,0-6.047-9.203-13.916-20.029c-5.263-7.237-9.476-15.082-9.865-21.835C1716.208,619.935,1719.376,613.018,1728.147,611.823
			L1728.147,611.823z"/>
		<path id="path8614" sodipodi:nodetypes="ccccsccssc" inkscape:connector-curvature="0" fill="#D40000" d="M1728.147,767.915
			c7.145,0.475,10.869-5.627,11.596-10.438c0.434-0.764,0.67-0.549,0.836,0.043c0.351,6.175,5.875,11.222,10.994,10.529
			c8.328-0.107,13.389-9.375,11.965-17.219c-1.738-9.58-6.897-15.351-10.807-21.293c-4.422-6.152-10.373-15.039-12.291-19.316
			c0,0-6.047,9.205-13.916,20.029c-5.263,7.238-9.476,15.082-9.865,21.836C1716.208,759.801,1719.376,766.717,1728.147,767.915
			L1728.147,767.915z"/>
		<path id="path8616" sodipodi:nodetypes="ccccsccssc" inkscape:connector-curvature="0" fill="#D40000" d="M1672.797,718.616
			c7.145,0.473,10.868-5.629,11.596-10.438c0.434-0.764,0.671-0.549,0.837,0.043c0.35,6.174,5.875,11.219,10.994,10.529
			c8.328-0.107,13.389-9.375,11.965-17.219c-1.738-9.582-6.898-15.353-10.808-21.293c-4.422-6.152-10.373-15.039-12.291-19.316
			c0,0-6.048,9.205-13.917,20.029c-5.262,7.237-9.474,15.082-9.864,21.836c-0.448,7.715,2.719,14.631,11.488,15.826V718.616z"/>
		<path id="path8618" sodipodi:nodetypes="ccccsccssc" inkscape:connector-curvature="0" fill="#D40000" d="M1618.614,767.915
			c7.146,0.475,10.868-5.627,11.596-10.438c0.434-0.764,0.671-0.549,0.837,0.043c0.35,6.175,5.875,11.222,10.992,10.529
			c8.328-0.107,13.391-9.375,11.967-17.219c-1.737-9.58-6.899-15.351-10.809-21.293c-4.421-6.152-10.372-15.039-12.289-19.316
			c0,0-6.049,9.205-13.918,20.029c-5.262,7.238-9.473,15.082-9.864,21.836C1606.678,759.801,1609.845,766.717,1618.614,767.915
			L1618.614,767.915z"/>
		<path id="path8664" sodipodi:nodetypes="cccccccc" inkscape:connector-curvature="0" fill="#D40000" d="M1772.452,737.704
			c-1.584,3.473-1.758,9.405,2.971,10.209c3.563,0.459,5.013-1.199,5.302-3.742c0.141-0.742,0.561-0.789,0.692,0.059
			c0.205,2.609,2.787,4.134,4.808,3.75c5.526-0.944,5.205-7.028,3.397-11.155c-2.729-5.479-5.6-8.938-8.244-14.451
			C1778.337,728.113,1774.87,732.776,1772.452,737.704L1772.452,737.704z"/>
	</g>
</g>
</svg>
