<?xml version="1.0" encoding="utf-8"?>
<!-- Generator: Adobe Illustrator 16.0.0, SVG Export Plug-In . SVG Version: 6.00 Build 0)  -->
<!DOCTYPE svg PUBLIC "-//W3C//DTD SVG 1.1//EN" "http://www.w3.org/Graphics/SVG/1.1/DTD/svg11.dtd">
<svg version="1.1"
	 id="svg4423" xmlns:dc="http://purl.org/dc/elements/1.1/" xmlns:cc="http://creativecommons.org/ns#" xmlns:rdf="http://www.w3.org/1999/02/22-rdf-syntax-ns#" xmlns:svg="http://www.w3.org/2000/svg" xmlns:sodipodi="http://sodipodi.sourceforge.net/DTD/sodipodi-0.dtd" xmlns:inkscape="http://www.inkscape.org/namespaces/inkscape" inkscape:version="0.48.1 r9760" sodipodi:docname="9H.svg"
	 xmlns="http://www.w3.org/2000/svg" xmlns:xlink="http://www.w3.org/1999/xlink" x="0px" y="0px" width="223.229px"
	 height="311.813px" viewBox="260.433 370.276 223.229 311.813" enable-background="new 260.433 370.276 223.229 311.813"
	 xml:space="preserve">
<sodipodi:namedview  id="base" pagecolor="#ffffff" bordercolor="#666666" borderopacity="1.0" inkscape:zoom="0.98994948" inkscape:cx="195.21402" inkscape:cy="512.40065" showgrid="false" inkscape:pageshadow="2" inkscape:snap-global="true" inkscape:snap-bbox="true" inkscape:window-width="735" inkscape:window-height="925" inkscape:document-units="px" inkscape:window-x="976" inkscape:snap-page="true" inkscape:pageopacity="0.0" inkscape:window-y="63" inkscape:window-maximized="0" inkscape:current-layer="layer1">
	</sodipodi:namedview>
<g id="layer1" inkscape:label="9H" inkscape:groupmode="layer">
	<g id="g8993" transform="translate(-1536.8493,-113.66123)">
		<g id="g8871">
			<g id="g8817" transform="translate(-4683.8753,2918.9368)">
				<path id="rect6363" fill="#FFFFFF" d="M6491.788-2435h201.969c5.871,0,10.631,4.759,10.631,10.63v290.551
					c0,5.871-4.76,10.633-10.631,10.633h-201.969c-5.871,0-10.63-4.762-10.63-10.633v-290.551
					C6481.158-2430.241,6485.917-2435,6491.788-2435z"/>
				<g id="g8631" transform="matrix(0.30106207,0,0,0.30106207,5727.1309,-1950.5247)">
					<g id="g8685" transform="translate(-1267.7708,-112.90889)">
						<path id="path7114" sodipodi:nodetypes="ccsccccscccsssssss" inkscape:connector-curvature="0" fill="#D40000" d="
							M3799.816-1365.606l10.052-3.13c3.792,9.949,11.46,12.884,19.57,12.252c14.554-1.132,19.385-17.101,20.478-31.221
							c-5.673,5.894-14.195,8.888-21.458,8.596c-23.192-1.226-29.128-19.446-29.343-38.532
							c-0.646-16.099,6.137-27.753,17.766-33.096c6.15-2.712,20.244-2.712,26.436,0.496c14.224,7.36,19.488,20.088,18.535,50.456
							c0.013,24.99-5.398,54.099-32.677,54.722C3813.408-1342.923,3801.432-1354.96,3799.816-1365.606L3799.816-1365.606z
							 M3839.302-1392.99c4.733-2.939,7.406-5.703,9.524-9.838c1.742-3.396,2.332-5.157,1.836-12.19
							c-1.281-18.123-10.957-28.392-24.996-26.352c-7.827,1.139-12.102,5.443-14.552,13.445
							c-4.538,14.778,1.21,32.077,11.982,36.061C3827.956-1390.067,3835.436-1390.586,3839.302-1392.99z"/>
						<path id="path7130" sodipodi:nodetypes="ccsccccscccsssssss" inkscape:connector-curvature="0" fill="#D40000" d="
							M4484.181-591.316l-10.055,3.127c-3.789-9.945-11.457-12.884-19.563-12.245c-14.561,1.129-19.388,17.101-20.48,31.218
							c5.676-5.891,14.201-8.888,21.46-8.596c23.189,1.226,29.125,19.446,29.343,38.532c0.643,16.095-6.137,27.753-17.763,33.092
							c-6.16,2.712-20.25,2.712-26.446-0.493c-14.221-7.357-19.482-20.092-18.525-50.459c-0.02-24.99,5.397-54.099,32.674-54.722
							C4470.59-613.999,4482.565-601.962,4484.181-591.316L4484.181-591.316z M4444.698-563.929
							c-4.732,2.939-7.402,5.702-9.523,9.835c-1.745,3.396-2.332,5.164-1.836,12.193c1.278,18.119,10.957,28.389,24.993,26.352
							c7.83-1.142,12.102-5.443,14.558-13.445c4.541-14.778-1.213-32.074-11.982-36.067
							C4456.045-566.858,4448.565-566.339,4444.698-563.929L4444.698-563.929z"/>
					</g>
				</g>
			</g>
		</g>
		<path id="path8636" sodipodi:nodetypes="cccccccc" inkscape:connector-curvature="0" fill="#D40000" d="M1805.866,542.262
			c-1.583-3.473-1.757-9.405,2.973-10.208c3.562-0.458,5.012,1.198,5.3,3.742c0.142,0.743,0.562,0.788,0.694-0.059
			c0.203-2.609,2.786-4.135,4.808-3.752c5.525,0.945,5.204,7.028,3.396,11.155c-2.729,5.479-5.601,8.938-8.244,14.452
			C1811.753,551.854,1808.284,547.19,1805.866,542.262L1805.866,542.262z"/>
		<path id="path8558" sodipodi:nodetypes="ccccsccssc" inkscape:connector-curvature="0" fill="#D40000" d="M1842.134,512.612
			c7.144-0.475,10.866,5.627,11.595,10.438c0.434,0.764,0.671,0.548,0.837-0.042c0.35-6.174,5.875-11.22,10.993-10.53
			c8.327,0.108,13.39,9.375,11.966,17.219c-1.738,9.583-6.899,15.353-10.808,21.295c-4.421,6.15-10.372,15.039-12.29,19.314
			c0,0-6.049-9.204-13.917-20.028c-5.264-7.237-9.475-15.081-9.865-21.836C1830.197,520.725,1833.364,513.808,1842.134,512.612
			L1842.134,512.612z"/>
		<path id="path8560" sodipodi:nodetypes="ccccsccssc" inkscape:connector-curvature="0" fill="#D40000" d="M1951.666,512.612
			c7.146-0.475,10.869,5.627,11.598,10.438c0.434,0.764,0.672,0.548,0.838-0.042c0.348-6.174,5.875-11.22,10.991-10.53
			c8.327,0.108,13.39,9.375,11.968,17.219c-1.738,9.583-6.9,15.353-10.811,21.295c-4.422,6.15-10.373,15.039-12.289,19.314
			c0,0-6.049-9.204-13.918-20.028c-5.262-7.237-9.473-15.081-9.863-21.836C1939.73,520.725,1942.896,513.808,1951.666,512.612
			L1951.666,512.612z"/>
		<path id="path8562" sodipodi:nodetypes="ccccsccssc" inkscape:connector-curvature="0" fill="#D40000" d="M1951.666,577.944
			c7.146-0.475,10.869,5.629,11.598,10.438c0.434,0.765,0.672,0.549,0.838-0.042c0.348-6.174,5.875-11.22,10.991-10.53
			c8.327,0.108,13.39,9.376,11.968,17.221c-1.738,9.58-6.9,15.352-10.811,21.293c-4.422,6.15-10.373,15.038-12.289,19.315
			c0,0-6.049-9.205-13.918-20.03c-5.262-7.236-9.473-15.082-9.863-21.835C1939.73,586.055,1942.896,579.139,1951.666,577.944
			L1951.666,577.944z"/>
		<path id="path8564" sodipodi:nodetypes="ccccsccssc" inkscape:connector-curvature="0" fill="#D40000" d="M1896.847,611.096
			c7.144-0.475,10.868,5.627,11.595,10.438c0.434,0.764,0.671,0.549,0.837-0.043c0.35-6.176,5.875-11.222,10.993-10.529
			c8.328,0.106,13.389,9.375,11.967,17.219c-1.737,9.581-6.898,15.353-10.809,21.292c-4.42,6.152-10.373,15.039-12.29,19.316
			c0,0-6.049-9.203-13.917-20.029c-5.263-7.238-9.474-15.083-9.865-21.835C1884.91,619.208,1888.077,612.291,1896.847,611.096
			L1896.847,611.096z"/>
		<path id="path8566" sodipodi:nodetypes="ccccsccssc" inkscape:connector-curvature="0" fill="#D40000" d="M1842.134,577.944
			c7.144-0.475,10.866,5.629,11.595,10.438c0.434,0.765,0.671,0.549,0.837-0.042c0.35-6.174,5.875-11.22,10.993-10.53
			c8.327,0.108,13.39,9.376,11.966,17.221c-1.738,9.58-6.899,15.352-10.808,21.293c-4.421,6.15-10.372,15.038-12.29,19.315
			c0,0-6.049-9.205-13.917-20.03c-5.264-7.236-9.475-15.082-9.865-21.835C1830.197,586.055,1833.364,579.139,1842.134,577.944
			L1842.134,577.944z"/>
		<path id="path8606" sodipodi:nodetypes="ccccsccssc" inkscape:connector-curvature="0" fill="#D40000" d="M1951.666,702.333
			c7.146,0.475,10.869-5.627,11.598-10.438c0.434-0.764,0.672-0.549,0.838,0.041c0.348,6.178,5.875,11.223,10.991,10.531
			c8.327-0.107,13.39-9.375,11.968-17.219c-1.738-9.582-6.9-15.353-10.811-21.293c-4.422-6.152-10.373-15.039-12.289-19.316
			c0,0-6.049,9.203-13.918,20.029c-5.262,7.238-9.473,15.082-9.863,21.834C1939.73,694.221,1942.896,701.137,1951.666,702.333
			L1951.666,702.333z"/>
		<path id="path8608" sodipodi:nodetypes="ccccsccssc" inkscape:connector-curvature="0" fill="#D40000" d="M1951.666,767.438
			c7.146,0.477,10.869-5.627,11.598-10.436c0.434-0.764,0.672-0.549,0.838,0.041c0.348,6.176,5.875,11.221,10.991,10.531
			c8.327-0.109,13.39-9.375,11.968-17.221c-1.738-9.58-6.9-15.352-10.811-21.293c-4.422-6.15-10.373-15.039-12.289-19.314
			c0,0-6.049,9.203-13.918,20.029c-5.262,7.236-9.473,15.08-9.863,21.834C1939.73,759.327,1942.896,766.243,1951.666,767.438
			L1951.666,767.438z"/>
		<path id="path8610" sodipodi:nodetypes="ccccsccssc" inkscape:connector-curvature="0" fill="#D40000" d="M1842.134,767.438
			c7.144,0.477,10.866-5.627,11.595-10.436c0.434-0.764,0.671-0.549,0.837,0.041c0.35,6.176,5.875,11.221,10.993,10.531
			c8.327-0.109,13.39-9.375,11.966-17.221c-1.738-9.58-6.899-15.352-10.808-21.293c-4.421-6.15-10.372-15.039-12.29-19.314
			c0,0-6.049,9.203-13.917,20.029c-5.264,7.236-9.475,15.08-9.865,21.834C1830.197,759.327,1833.364,766.243,1842.134,767.438
			L1842.134,767.438z"/>
		<path id="path8612" sodipodi:nodetypes="ccccsccssc" inkscape:connector-curvature="0" fill="#D40000" d="M1842.134,702.333
			c7.144,0.475,10.866-5.627,11.595-10.438c0.434-0.764,0.671-0.549,0.837,0.041c0.35,6.178,5.875,11.223,10.993,10.531
			c8.327-0.107,13.39-9.375,11.966-17.219c-1.738-9.582-6.899-15.353-10.808-21.293c-4.421-6.152-10.372-15.039-12.29-19.316
			c0,0-6.049,9.203-13.917,20.029c-5.264,7.238-9.475,15.082-9.865,21.834C1830.197,694.221,1833.364,701.137,1842.134,702.333
			L1842.134,702.333z"/>
		<path id="path8662" sodipodi:nodetypes="cccccccc" inkscape:connector-curvature="0" fill="#D40000" d="M1994.682,733.12
			c-1.584,3.473-1.759,9.402,2.971,10.207c3.563,0.459,5.012-1.197,5.299-3.74c0.145-0.744,0.563-0.789,0.695,0.057
			c0.205,2.609,2.787,4.134,4.807,3.75c5.527-0.943,5.203-7.025,3.398-11.152c-2.73-5.48-5.602-8.938-8.244-14.453
			C2000.568,723.53,1997.1,728.192,1994.682,733.12L1994.682,733.12z"/>
	</g>
</g>
</svg>
