<?xml version="1.0" encoding="utf-8"?>
<!-- Generator: Adobe Illustrator 16.0.0, SVG Export Plug-In . SVG Version: 6.00 Build 0)  -->
<!DOCTYPE svg PUBLIC "-//W3C//DTD SVG 1.1//EN" "http://www.w3.org/Graphics/SVG/1.1/DTD/svg11.dtd">
<svg version="1.1" xmlns="http://www.w3.org/2000/svg" xmlns:xlink="http://www.w3.org/1999/xlink" x="0px" y="0px"
	 width="223.228px" height="311.812px" viewBox="260.433 370.275 223.228 311.812"
	 enable-background="new 260.433 370.275 223.228 311.812" xml:space="preserve">
<pattern  x="-193.886" y="552.406" width="744.094" height="1052.363" patternUnits="userSpaceOnUse" id="pattern13545-1" viewBox="0 -1052.363 744.094 1052.363" overflow="visible">
	<g>
		<polygon fill="none" points="0,-1052.363 744.094,-1052.363 744.094,0 0,0 		"/>
	</g>
</pattern>
<g id="svg3775" xmlns:dc="http://purl.org/dc/elements/1.1/" xmlns:cc="http://creativecommons.org/ns#" xmlns:rdf="http://www.w3.org/1999/02/22-rdf-syntax-ns#" xmlns:svg="http://www.w3.org/2000/svg" xmlns:sodipodi="http://sodipodi.sourceforge.net/DTD/sodipodi-0.dtd" xmlns:inkscape="http://www.inkscape.org/namespaces/inkscape" sodipodi:docname="Blue_Back.svg" inkscape:version="0.48.1 r9760">
	
		<sodipodi:namedview  showgrid="false" inkscape:cy="529.84002" inkscape:cx="81.76098" inkscape:zoom="0.7" borderopacity="1.0" bordercolor="#666666" pagecolor="#ffffff" id="base" inkscape:window-maximized="0" inkscape:window-y="30" inkscape:current-layer="layer1" inkscape:pageshadow="2" inkscape:pageopacity="0.0" inkscape:window-x="30" inkscape:window-height="932" inkscape:document-units="px" inkscape:window-width="1320">
		</sodipodi:namedview>
	<g id="layer1" inkscape:label="BLUE_BACK" inkscape:groupmode="layer">
		<g id="g13552" transform="translate(520.04751,-131.04053)">
			<path fill="url(#pattern13545-1)" d="M-47.514,501.817h-200.97c-5.87,0-10.63,4.76-10.63,10.63v289.55
				c0,5.87,4.76,10.63,10.63,10.63h200.97c5.87,0,10.63-4.76,10.63-10.63v-289.55C-36.884,506.576-41.643,501.817-47.514,501.817z
				 M-53.863,796.677h-188.28v-278.91h188.28V796.677z"/>
			<path fill="url(#pattern13545-1)" d="M-246.523,513.897v286.649h197.05V513.897H-246.523z M-53.863,796.677h-188.28v-278.91
				h188.28V796.677z"/>
			<rect x="-242.143" y="517.767" fill="url(#pattern13545-1)" width="188.28" height="278.91"/>
		</g>
	</g>
</g>
<g id="Layer_2">
	<rect x="277.904" y="386.726" fill="#36489E" width="188.28" height="278.91"/>
</g>
</svg>
